<svg width="282" height="76" viewBox="0 0 282 76" fill="none" xmlns="http://www.w3.org/2000/svg">
<rect x="15" y="10" width="267" height="66" fill="#3774A7"/>
<path d="M50.5 45.5C25.7 62.7 16.5 55 15 49L0 10.5L33.5 -4.5L146.5 -40L282 10.5C215.167 15 75.3 28.3 50.5 45.5Z" fill="#FFEDB9"/>
<circle r="33" transform="matrix(-1 0 0 1 48 43)" fill="#366E9D"/>
<mask id="mask0" mask-type="alpha" maskUnits="userSpaceOnUse" x="15" y="10" width="66" height="66">
<circle r="33" transform="matrix(-1 0 0 1 48 43)" fill="#366E9D"/>
</mask>
<g mask="url(#mask0)">
<path d="M42.3536 50.7852C73.0037 32.5585 92.3814 35.1536 98.239 38.7294L95.787 68.3579L71.6755 102.584L35.0997 109.429L-2.6 86.6458L9.14922 23.2C7.44644 39.9895 11.7034 69.0118 42.3536 50.7852Z" fill="#FFCF3E" stroke="#FFCF3E"/>
</g>
<path d="M92.7793 51.8818H98.3779V54H90.1426V41.2031H92.7793V51.8818ZM104.108 54.1758C102.714 54.1758 101.577 53.748 100.698 52.8926C99.8252 52.0371 99.3887 50.8975 99.3887 49.4736V49.2275C99.3887 48.2725 99.5732 47.4199 99.9424 46.6699C100.312 45.9141 100.833 45.334 101.507 44.9297C102.187 44.5195 102.96 44.3145 103.827 44.3145C105.128 44.3145 106.15 44.7246 106.895 45.5449C107.645 46.3652 108.02 47.5283 108.02 49.0342V50.0713H101.964C102.046 50.6924 102.292 51.1904 102.702 51.5654C103.118 51.9404 103.643 52.1279 104.275 52.1279C105.254 52.1279 106.019 51.7734 106.569 51.0645L107.817 52.4619C107.437 53.001 106.921 53.4229 106.271 53.7275C105.62 54.0264 104.899 54.1758 104.108 54.1758ZM103.818 46.3711C103.314 46.3711 102.904 46.541 102.588 46.8809C102.277 47.2207 102.078 47.707 101.99 48.3398H105.523V48.1377C105.512 47.5752 105.359 47.1416 105.066 46.8369C104.773 46.5264 104.357 46.3711 103.818 46.3711ZM114.98 54C114.863 53.7715 114.778 53.4873 114.726 53.1475C114.11 53.833 113.311 54.1758 112.326 54.1758C111.395 54.1758 110.621 53.9062 110.006 53.3672C109.396 52.8281 109.092 52.1484 109.092 51.3281C109.092 50.3203 109.464 49.5469 110.208 49.0078C110.958 48.4688 112.039 48.1963 113.451 48.1904H114.62V47.6455C114.62 47.2061 114.506 46.8545 114.277 46.5908C114.055 46.3271 113.7 46.1953 113.214 46.1953C112.786 46.1953 112.449 46.2979 112.203 46.5029C111.963 46.708 111.843 46.9893 111.843 47.3467H109.303C109.303 46.7959 109.473 46.2861 109.812 45.8174C110.152 45.3486 110.633 44.9824 111.254 44.7188C111.875 44.4492 112.572 44.3145 113.346 44.3145C114.518 44.3145 115.446 44.6104 116.132 45.2021C116.823 45.7881 117.169 46.6143 117.169 47.6807V51.8027C117.175 52.7051 117.301 53.3877 117.547 53.8506V54H114.98ZM112.88 52.2334C113.255 52.2334 113.601 52.1514 113.917 51.9873C114.233 51.8174 114.468 51.5918 114.62 51.3105V49.6758H113.671C112.399 49.6758 111.723 50.1152 111.641 50.9941L111.632 51.1436C111.632 51.46 111.743 51.7207 111.966 51.9258C112.188 52.1309 112.493 52.2334 112.88 52.2334ZM124.464 46.8721C124.118 46.8252 123.813 46.8018 123.55 46.8018C122.589 46.8018 121.959 47.127 121.66 47.7773V54H119.12V44.4902H121.52L121.59 45.624C122.1 44.751 122.806 44.3145 123.708 44.3145C123.989 44.3145 124.253 44.3525 124.499 44.4287L124.464 46.8721ZM128.032 44.4902L128.111 45.5889C128.791 44.7393 129.702 44.3145 130.845 44.3145C131.853 44.3145 132.603 44.6104 133.095 45.2021C133.587 45.7939 133.839 46.6787 133.851 47.8564V54H131.311V47.918C131.311 47.3789 131.193 46.9893 130.959 46.749C130.725 46.5029 130.335 46.3799 129.79 46.3799C129.075 46.3799 128.539 46.6846 128.182 47.2939V54H125.642V44.4902H128.032ZM138.465 54H135.916V44.4902H138.465V54ZM135.767 42.0293C135.767 41.6484 135.893 41.335 136.145 41.0889C136.402 40.8428 136.751 40.7197 137.19 40.7197C137.624 40.7197 137.97 40.8428 138.228 41.0889C138.485 41.335 138.614 41.6484 138.614 42.0293C138.614 42.416 138.482 42.7324 138.219 42.9785C137.961 43.2246 137.618 43.3477 137.19 43.3477C136.763 43.3477 136.417 43.2246 136.153 42.9785C135.896 42.7324 135.767 42.416 135.767 42.0293ZM142.903 44.4902L142.982 45.5889C143.662 44.7393 144.573 44.3145 145.716 44.3145C146.724 44.3145 147.474 44.6104 147.966 45.2021C148.458 45.7939 148.71 46.6787 148.722 47.8564V54H146.182V47.918C146.182 47.3789 146.064 46.9893 145.83 46.749C145.596 46.5029 145.206 46.3799 144.661 46.3799C143.946 46.3799 143.41 46.6846 143.053 47.2939V54H140.513V44.4902H142.903ZM150.286 49.1748C150.286 47.7158 150.632 46.541 151.323 45.6504C152.021 44.7598 152.958 44.3145 154.136 44.3145C155.179 44.3145 155.99 44.6719 156.57 45.3867L156.676 44.4902H158.979V53.6836C158.979 54.5156 158.788 55.2393 158.407 55.8545C158.032 56.4697 157.502 56.9385 156.816 57.2607C156.131 57.583 155.328 57.7441 154.408 57.7441C153.711 57.7441 153.031 57.6035 152.369 57.3223C151.707 57.0469 151.206 56.6895 150.866 56.25L151.991 54.7031C152.624 55.4121 153.392 55.7666 154.294 55.7666C154.968 55.7666 155.492 55.585 155.867 55.2217C156.242 54.8643 156.43 54.3545 156.43 53.6924V53.1826C155.844 53.8447 155.073 54.1758 154.118 54.1758C152.976 54.1758 152.05 53.7305 151.341 52.8398C150.638 51.9434 150.286 50.7568 150.286 49.2803V49.1748ZM152.826 49.3594C152.826 50.2207 152.999 50.8975 153.345 51.3896C153.69 51.876 154.165 52.1191 154.769 52.1191C155.542 52.1191 156.096 51.8291 156.43 51.249V47.25C156.09 46.6699 155.542 46.3799 154.786 46.3799C154.177 46.3799 153.696 46.6289 153.345 47.127C152.999 47.625 152.826 48.3691 152.826 49.3594ZM165.878 49.5439H160.93V47.4961H165.878V49.5439ZM170.721 49.4912V54H168.084V41.2031H173.076C174.037 41.2031 174.881 41.3789 175.607 41.7305C176.34 42.082 176.902 42.583 177.295 43.2334C177.688 43.8779 177.884 44.6133 177.884 45.4395C177.884 46.6934 177.453 47.6836 176.592 48.4102C175.736 49.1309 174.55 49.4912 173.032 49.4912H170.721ZM170.721 47.3555H173.076C173.773 47.3555 174.304 47.1914 174.667 46.8633C175.036 46.5352 175.221 46.0664 175.221 45.457C175.221 44.8301 175.036 44.3232 174.667 43.9365C174.298 43.5498 173.788 43.3506 173.138 43.3389H170.721V47.3555ZM183.228 50.4053L184.985 44.4902H187.71L183.887 55.4766L183.676 55.9775C183.107 57.2197 182.17 57.8408 180.863 57.8408C180.494 57.8408 180.119 57.7852 179.738 57.6738V55.749L180.125 55.7578C180.605 55.7578 180.963 55.6846 181.197 55.5381C181.438 55.3916 181.625 55.1484 181.76 54.8086L182.059 54.0264L178.728 44.4902H181.461L183.228 50.4053ZM191.753 42.1523V44.4902H193.379V46.3535H191.753V51.0996C191.753 51.4512 191.82 51.7031 191.955 51.8555C192.09 52.0078 192.348 52.084 192.729 52.084C193.01 52.084 193.259 52.0635 193.476 52.0225V53.9473C192.978 54.0996 192.465 54.1758 191.938 54.1758C190.156 54.1758 189.248 53.2764 189.213 51.4775V46.3535H187.824V44.4902H189.213V42.1523H191.753ZM197.272 45.5273C197.946 44.7188 198.793 44.3145 199.812 44.3145C201.875 44.3145 202.921 45.5127 202.95 47.9092V54H200.41V47.9795C200.41 47.4346 200.293 47.0332 200.059 46.7754C199.824 46.5117 199.435 46.3799 198.89 46.3799C198.146 46.3799 197.606 46.667 197.272 47.2412V54H194.732V40.5H197.272V45.5273ZM204.471 49.1572C204.471 48.2139 204.652 47.373 205.016 46.6348C205.379 45.8965 205.9 45.3252 206.58 44.9209C207.266 44.5166 208.06 44.3145 208.962 44.3145C210.245 44.3145 211.291 44.707 212.1 45.4922C212.914 46.2773 213.368 47.3438 213.462 48.6914L213.479 49.3418C213.479 50.8008 213.072 51.9727 212.258 52.8574C211.443 53.7363 210.351 54.1758 208.979 54.1758C207.608 54.1758 206.513 53.7363 205.692 52.8574C204.878 51.9785 204.471 50.7832 204.471 49.2715V49.1572ZM207.011 49.3418C207.011 50.2441 207.181 50.9355 207.521 51.416C207.86 51.8906 208.347 52.1279 208.979 52.1279C209.595 52.1279 210.075 51.8936 210.421 51.4248C210.767 50.9502 210.939 50.1943 210.939 49.1572C210.939 48.2725 210.767 47.5869 210.421 47.1006C210.075 46.6143 209.589 46.3711 208.962 46.3711C208.341 46.3711 207.86 46.6143 207.521 47.1006C207.181 47.5811 207.011 48.3281 207.011 49.3418ZM217.382 44.4902L217.461 45.5889C218.141 44.7393 219.052 44.3145 220.194 44.3145C221.202 44.3145 221.952 44.6104 222.444 45.2021C222.937 45.7939 223.188 46.6787 223.2 47.8564V54H220.66V47.918C220.66 47.3789 220.543 46.9893 220.309 46.749C220.074 46.5029 219.685 46.3799 219.14 46.3799C218.425 46.3799 217.889 46.6846 217.531 47.2939V54H214.991V44.4902H217.382ZM225.266 52.752C225.266 52.3477 225.4 52.0195 225.67 51.7676C225.945 51.5156 226.288 51.3896 226.698 51.3896C227.114 51.3896 227.457 51.5156 227.727 51.7676C228.002 52.0195 228.14 52.3477 228.14 52.752C228.14 53.1504 228.005 53.4756 227.735 53.7275C227.466 53.9736 227.12 54.0967 226.698 54.0967C226.282 54.0967 225.939 53.9736 225.67 53.7275C225.4 53.4756 225.266 53.1504 225.266 52.752ZM234.327 52.1279C234.796 52.1279 235.177 51.999 235.47 51.7412C235.763 51.4834 235.915 51.1406 235.927 50.7129H238.309C238.303 51.3574 238.127 51.9492 237.781 52.4883C237.436 53.0215 236.961 53.4375 236.357 53.7363C235.76 54.0293 235.098 54.1758 234.371 54.1758C233.012 54.1758 231.939 53.7451 231.154 52.8838C230.369 52.0166 229.977 50.8213 229.977 49.2979V49.1309C229.977 47.666 230.366 46.4971 231.146 45.624C231.925 44.751 232.994 44.3145 234.354 44.3145C235.543 44.3145 236.495 44.6543 237.21 45.334C237.931 46.0078 238.297 46.9072 238.309 48.0322H235.927C235.915 47.54 235.763 47.1416 235.47 46.8369C235.177 46.5264 234.79 46.3711 234.31 46.3711C233.718 46.3711 233.27 46.5879 232.965 47.0215C232.666 47.4492 232.517 48.1465 232.517 49.1133V49.377C232.517 50.3555 232.666 51.0586 232.965 51.4863C233.264 51.9141 233.718 52.1279 234.327 52.1279ZM239.363 49.1572C239.363 48.2139 239.545 47.373 239.908 46.6348C240.271 45.8965 240.793 45.3252 241.473 44.9209C242.158 44.5166 242.952 44.3145 243.854 44.3145C245.138 44.3145 246.184 44.707 246.992 45.4922C247.807 46.2773 248.261 47.3438 248.354 48.6914L248.372 49.3418C248.372 50.8008 247.965 51.9727 247.15 52.8574C246.336 53.7363 245.243 54.1758 243.872 54.1758C242.501 54.1758 241.405 53.7363 240.585 52.8574C239.771 51.9785 239.363 50.7832 239.363 49.2715V49.1572ZM241.903 49.3418C241.903 50.2441 242.073 50.9355 242.413 51.416C242.753 51.8906 243.239 52.1279 243.872 52.1279C244.487 52.1279 244.968 51.8936 245.313 51.4248C245.659 50.9502 245.832 50.1943 245.832 49.1572C245.832 48.2725 245.659 47.5869 245.313 47.1006C244.968 46.6143 244.481 46.3711 243.854 46.3711C243.233 46.3711 242.753 46.6143 242.413 47.1006C242.073 47.5811 241.903 48.3281 241.903 49.3418ZM252.318 44.4902L252.397 45.5537C253.071 44.7275 253.982 44.3145 255.131 44.3145C256.355 44.3145 257.196 44.7979 257.653 45.7646C258.321 44.7979 259.273 44.3145 260.51 44.3145C261.541 44.3145 262.309 44.6162 262.812 45.2197C263.316 45.8174 263.568 46.7197 263.568 47.9268V54H261.02V47.9355C261.02 47.3965 260.914 47.0039 260.703 46.7578C260.492 46.5059 260.12 46.3799 259.587 46.3799C258.825 46.3799 258.298 46.7432 258.005 47.4697L258.014 54H255.474V47.9443C255.474 47.3936 255.365 46.9951 255.148 46.749C254.932 46.5029 254.562 46.3799 254.041 46.3799C253.32 46.3799 252.799 46.6787 252.477 47.2764V54H249.937V44.4902H252.318Z" fill="white"/>
</svg>
