<svg width="274" height="75" viewBox="0 0 274 75" fill="none" xmlns="http://www.w3.org/2000/svg">
<rect y="3" width="274" height="62" rx="10" fill="#3774A7"/>
<path d="M76 59H66.9375V25.1875H76V59ZM66.4062 16.4375C66.4062 15.0833 66.8542 13.9688 67.75 13.0938C68.6667 12.2188 69.9062 11.7812 71.4688 11.7812C73.0104 11.7812 74.2396 12.2188 75.1562 13.0938C76.0729 13.9688 76.5312 15.0833 76.5312 16.4375C76.5312 17.8125 76.0625 18.9375 75.125 19.8125C74.2083 20.6875 72.9896 21.125 71.4688 21.125C69.9479 21.125 68.7188 20.6875 67.7812 19.8125C66.8646 18.9375 66.4062 17.8125 66.4062 16.4375ZM91.7812 25.1875L92.0625 29.0938C94.4792 26.0729 97.7188 24.5625 101.781 24.5625C105.365 24.5625 108.031 25.6146 109.781 27.7188C111.531 29.8229 112.427 32.9688 112.469 37.1562V59H103.438V37.375C103.438 35.4583 103.021 34.0729 102.188 33.2188C101.354 32.3438 99.9688 31.9062 98.0312 31.9062C95.4896 31.9062 93.5833 32.9896 92.3125 35.1562V59H83.2812V25.1875H91.7812ZM128.875 59H119.812V25.1875H128.875V59ZM119.281 16.4375C119.281 15.0833 119.729 13.9688 120.625 13.0938C121.542 12.2188 122.781 11.7812 124.344 11.7812C125.885 11.7812 127.115 12.2188 128.031 13.0938C128.948 13.9688 129.406 15.0833 129.406 16.4375C129.406 17.8125 128.938 18.9375 128 19.8125C127.083 20.6875 125.865 21.125 124.344 21.125C122.823 21.125 121.594 20.6875 120.656 19.8125C119.74 18.9375 119.281 17.8125 119.281 16.4375ZM146.719 51.7188H163.25V59H135.188V53.5L151.094 32.5H135.656V25.1875H162.75V30.5312L146.719 51.7188ZM178.438 59H169.375V25.1875H178.438V59ZM168.844 16.4375C168.844 15.0833 169.292 13.9688 170.188 13.0938C171.104 12.2188 172.344 11.7812 173.906 11.7812C175.448 11.7812 176.677 12.2188 177.594 13.0938C178.51 13.9688 178.969 15.0833 178.969 16.4375C178.969 17.8125 178.5 18.9375 177.562 19.8125C176.646 20.6875 175.427 21.125 173.906 21.125C172.385 21.125 171.156 20.6875 170.219 19.8125C169.302 18.9375 168.844 17.8125 168.844 16.4375ZM205.5 59C205.083 58.1875 204.781 57.1771 204.594 55.9688C202.406 58.4062 199.562 59.625 196.062 59.625C192.75 59.625 190 58.6667 187.812 56.75C185.646 54.8333 184.562 52.4167 184.562 49.5C184.562 45.9167 185.885 43.1667 188.531 41.25C191.198 39.3333 195.042 38.3646 200.062 38.3438H204.219V36.4062C204.219 34.8438 203.812 33.5938 203 32.6562C202.208 31.7188 200.948 31.25 199.219 31.25C197.698 31.25 196.5 31.6146 195.625 32.3438C194.771 33.0729 194.344 34.0729 194.344 35.3438H185.312C185.312 33.3854 185.917 31.5729 187.125 29.9062C188.333 28.2396 190.042 26.9375 192.25 26C194.458 25.0417 196.938 24.5625 199.688 24.5625C203.854 24.5625 207.156 25.6146 209.594 27.7188C212.052 29.8021 213.281 32.7396 213.281 36.5312V51.1875C213.302 54.3958 213.75 56.8229 214.625 58.4688V59H205.5ZM198.031 52.7188C199.365 52.7188 200.594 52.4271 201.719 51.8438C202.844 51.2396 203.677 50.4375 204.219 49.4375V43.625H200.844C196.323 43.625 193.917 45.1875 193.625 48.3125L193.594 48.8438C193.594 49.9688 193.99 50.8958 194.781 51.625C195.573 52.3542 196.656 52.7188 198.031 52.7188Z" fill="#FFF5D8"/>
</svg>
